<?xml version="1.0" standalone="no"?>
<!DOCTYPE svg PUBLIC "-//W3C//DTD SVG 20010904//EN"
 "http://www.w3.org/TR/2001/REC-SVG-20010904/DTD/svg10.dtd">
<svg version="1.0" xmlns="http://www.w3.org/2000/svg"
 width="16.000000pt" height="16.000000pt" viewBox="0 0 16.000000 16.000000"
 preserveAspectRatio="xMidYMid meet">
<metadata>
Created by potrace 1.11, written by Peter Selinger 2001-2013
</metadata>
<g transform="translate(0.000000,16.000000) scale(0.012500,-0.012500)"
fill="#000000" stroke="none">
<path d="M485 1259 c-236 -62 -422 -254 -470 -486 -30 -144 -4 -315 67 -442
38 -69 42 -73 116 -147 146 -148 367 -212 575 -169 207 43 386 198 467 405 28
70 35 122 34 240 -1 166 -64 312 -189 435 -76 76 -190 140 -290 165 -83 21
-230 20 -310 -1z m200 -479 c184 -105 218 -130 209 -155 -5 -13 -103 -74 -214
-133 -25 -14 -52 -31 -61 -38 -8 -8 -19 -14 -22 -14 -4 0 -25 -11 -47 -25 -43
-27 -75 -32 -87 -12 -4 6 -8 111 -8 232 -1 199 1 221 17 237 11 11 22 17 26
15 4 -2 88 -50 187 -107z"/>
</g>
</svg>
